<svg width="60" height="58" viewBox="0 0 60 58" fill="none" xmlns="http://www.w3.org/2000/svg">
<path d="M1.45215 0.5H54.9531C57.4384 0.5 59.4531 2.51472 59.4531 5V53.0004C59.4531 55.4857 57.4384 57.5004 54.9531 57.5004H1.45215V0.5Z" fill="#23A6F0"/>
<path fill-rule="evenodd" clip-rule="evenodd" d="M33.9901 31.3188L38.2939 35.6226C38.4452 35.7739 38.5301 35.9792 38.53 36.1932C38.53 36.4072 38.4449 36.6124 38.2935 36.7637C38.1421 36.915 37.9368 36.9999 37.7228 36.9998C37.5088 36.9998 37.3036 36.9147 37.1523 36.7633L32.8485 32.4595C31.562 33.456 29.9441 33.9249 28.3241 33.7709C26.704 33.6169 25.2035 32.8515 24.1277 31.6304C23.052 30.4094 22.4818 28.8243 22.5332 27.1978C22.5846 25.5713 23.2538 24.0254 24.4045 22.8747C25.5552 21.724 27.101 21.0548 28.7276 21.0034C30.3541 20.952 31.9391 21.5222 33.1602 22.598C34.3813 23.6737 35.1467 25.1742 35.3007 26.7943C35.4547 28.4143 34.9858 30.0322 33.9893 31.3188H33.9901ZM28.9303 32.1995C30.2033 32.1995 31.4241 31.6938 32.3243 30.7937C33.2244 29.8936 33.7301 28.6727 33.7301 27.3997C33.7301 26.1268 33.2244 24.9059 32.3243 24.0058C31.4241 23.1057 30.2033 22.6 28.9303 22.6C27.6573 22.6 26.4365 23.1057 25.5364 24.0058C24.6362 24.9059 24.1306 26.1268 24.1306 27.3997C24.1306 28.6727 24.6362 29.8936 25.5364 30.7937C26.4365 31.6938 27.6573 32.1995 28.9303 32.1995Z" fill="white"/>
<path d="M1.45215 0.5H54.9531C57.4384 0.5 59.4531 2.51472 59.4531 5V53.0004C59.4531 55.4857 57.4384 57.5004 54.9531 57.5004H1.45215V0.5Z" stroke="#E6E6E6"/>
</svg>
